<svg width="46" height="48" fill="none" xmlns="http://www.w3.org/2000/svg"><path d="M19.402 30.608l-9.11-9.002a3.124 3.124 0 00-2.224-.92 3.13 3.13 0 00-1.613.443V10.293c0-.553-.144-1.073-.396-1.525a1.614 1.614 0 012.132 1.525v7.965a.766.766 0 001.533 0v-7.965A3.148 3.148 0 006.579 7.15a3.13 3.13 0 00-1.634.458A3.126 3.126 0 003.31 7.15a3.148 3.148 0 00-3.144 3.145L.18 25.397c0 .677.251 1.632.583 2.222l.016.028 9.435 15.228c.198.362.378 1.052.378 1.459v2.886a.766.766 0 001.532 0v-2.886c0-.677-.25-1.632-.582-2.223a.554.554 0 00-.017-.027L2.091 26.856c-.199-.363-.379-1.053-.38-1.46L1.7 10.293a1.613 1.613 0 013.224 0V23.83c0 .02.002.038.003.056.014.787.32 1.569.918 2.167l7.318 7.318a.766.766 0 001.084-1.083L6.928 24.97a1.602 1.602 0 01-.473-1.14c0-.43.168-.836.473-1.14a1.6 1.6 0 011.14-.473c.43 0 .835.168 1.143.476l9.111 9.001c1.014 1.013 1.87 3.08 1.87 4.513v11.027a.766.766 0 101.531 0V36.207c0-1.838-1.018-4.296-2.32-5.6zM42.69 7.149a3.13 3.13 0 00-1.634.458 3.13 3.13 0 00-1.635-.458 3.148 3.148 0 00-3.144 3.144v7.964a.766.766 0 001.532 0v-7.964a1.614 1.614 0 012.132-1.525 3.124 3.124 0 00-.396 1.525V21.13a3.125 3.125 0 00-1.613-.444c-.84 0-1.63.328-2.22.918l-9.117 9.008c-1.3 1.3-2.318 3.758-2.318 5.596v11.027a.766.766 0 001.532 0V36.207c0-1.433.855-3.5 1.865-4.51l9.118-9.007c.305-.305.71-.473 1.14-.473.431 0 .836.168 1.14.473a1.6 1.6 0 01.473 1.14c0 .43-.168.836-.472 1.14l-7.318 7.318a.766.766 0 001.083 1.083l7.318-7.318c.599-.598.904-1.38.918-2.166l.003-.057V10.293a1.614 1.614 0 013.225 0l-.014 15.103c0 .407-.18 1.097-.379 1.46l-9.434 15.227a.981.981 0 00-.017.029c-.331.59-.581 1.545-.581 2.222v2.886a.766.766 0 001.531 0v-2.886c0-.407.18-1.097.379-1.46l9.434-15.227a.981.981 0 00.017-.028c.331-.59.582-1.545.582-2.222l.014-15.104a3.148 3.148 0 00-3.145-3.144z" fill="#fff"/><path d="M33.979 5.617a.766.766 0 00.766-.766V.766A.766.766 0 0033.979 0H12.02a.766.766 0 00-.766.766V4.85c0 .423.343.766.766.766h.256v1.532h-.256a.766.766 0 00-.766.766V12c0 .423.343.766.766.766h.256v1.532h-.256a.766.766 0 00-.766.766v4.085c0 .423.343.766.766.766h21.96a.766.766 0 00.766-.766v-4.085a.766.766 0 00-.766-.766h-.255v-1.532h.255a.766.766 0 00.766-.766V7.915a.766.766 0 00-.766-.766h-.255V5.617h.255zm-.766 12.766H12.787V15.83h20.426v2.553zm0-7.15h-3.32a.766.766 0 000 1.533h2.299v1.532H13.809v-1.532h13.02a.766.766 0 100-1.532H12.788V8.68h20.426v2.553zM13.809 7.15V5.617h18.383v1.532H13.808zm19.404-3.064H12.787V1.532h20.426v2.553z" fill="#fff"/></svg>