<svg width="48" height="48" fill="none" xmlns="http://www.w3.org/2000/svg"><path d="M42.879 9.181h1.483a.937.937 0 000-1.873h-3.56a.937.937 0 00-.937.937v3.56a.937.937 0 001.873 0v-1.031A22.054 22.054 0 0146.126 24c0 12.2-9.925 22.126-22.126 22.126C11.8 46.126 1.874 36.2 1.874 24 1.874 11.8 11.799 1.874 24 1.874c.902 0 1.81.054 2.7.162a.938.938 0 00.226-1.86A24.341 24.341 0 0024 0 23.843 23.843 0 007.03 7.03 23.843 23.843 0 000 24c0 6.41 2.496 12.438 7.03 16.97A23.842 23.842 0 0024 48c6.41 0 12.438-2.496 16.97-7.03A23.843 23.843 0 0048 24c0-5.41-1.807-10.603-5.121-14.819z" fill="#fff"/><path d="M10.163 14.148a.937.937 0 00-1.293.29 17.962 17.962 0 00-2.666 11.44 17.936 17.936 0 005.143 10.775A17.839 17.839 0 0024 41.886c4.583 0 9.165-1.744 12.654-5.233 6.977-6.977 6.977-18.33 0-25.306a17.937 17.937 0 00-10.759-5.141A17.964 17.964 0 0014.47 8.85a.937.937 0 001 1.585C21.833 6.424 30 7.343 35.328 12.672c6.246 6.246 6.246 16.41 0 22.656-6.247 6.247-16.41 6.247-22.657 0-5.255-5.255-6.188-13.618-2.219-19.887a.937.937 0 00-.29-1.293z" fill="#fff"/><path d="M36.18 24.952h1.155a.937.937 0 000-1.874H36.18a.937.937 0 000 1.874zm-26.452-.967c0 .517.42.937.937.937h1.155a.937.937 0 000-1.874h-1.155a.937.937 0 00-.937.937zM24.952 11.82v-1.155a.937.937 0 00-1.874 0v1.155a.937.937 0 001.874 0zm-1.904 24.36v1.155a.937.937 0 001.874 0v-1.156a.937.937 0 00-1.874 0zm-3.744-18.201a.937.937 0 00-1.325 1.325l3.175 3.175a3.207 3.207 0 00-.382 1.52A3.231 3.231 0 0024 27.229 3.231 3.231 0 0027.228 24c0-.55-.139-1.067-.382-1.52l6.407-6.408a.937.937 0 00-1.326-1.325l-6.406 6.407A3.207 3.207 0 0024 20.772c-.55 0-1.067.139-1.52.382l-3.176-3.175zm6.05 6.02c0 .747-.607 1.355-1.354 1.355A1.355 1.355 0 0122.646 24a1.355 1.355 0 012.708 0zM12.671 12.671a.94.94 0 00.276-.662.942.942 0 00-.938-.937c-.247 0-.488.1-.663.274a.945.945 0 00-.274.663c0 .247.1.488.274.662a.944.944 0 00.663.274c.247 0 .488-.1.662-.274zM30.49 2.8a.94.94 0 00.938-.938.94.94 0 00-.275-.662.944.944 0 00-.663-.275c-.247 0-.488.1-.662.275a.944.944 0 00-.275.662.94.94 0 00.937.937z" fill="#fff"/></svg>